<?xml version="1.0" standalone="no"?><!DOCTYPE svg PUBLIC "-//W3C//DTD SVG 1.1//EN" "http://www.w3.org/Graphics/SVG/1.1/DTD/svg11.dtd"><svg t="1503456295388" class="icon" style="" viewBox="0 0 1024 1024" version="1.1" xmlns="http://www.w3.org/2000/svg" p-id="1511" xmlns:xlink="http://www.w3.org/1999/xlink" width="200" height="200"><defs><style type="text/css"></style></defs><path d="M513.52 771.968l-1.52 0.016c-229.728 0-416-58.192-416-130v156c0 71.808 186.256 130 416 130 28.704 0 56.736-0.912 83.824-2.64a233.472 233.472 0 0 1-82.304-153.376zM512 96C282.272 96 96 154.192 96 226v104c0 71.808 186.256 130 416 130s416-58.192 416-130v-104C928 154.192 741.728 96 512 96z m246.176 416.624a232.96 232.96 0 0 1 161.6 77.088c5.344-8.32 8.224-16.912 8.224-25.712V408c0 42.976-67.008 80.96-169.824 104.624zM512 694c2.032 0 4-0.08 6.032-0.096a234.224 234.224 0 0 1 138.64-164.144c-45.12 5.232-93.712 8.24-144.656 8.24-229.728 0-416-58.192-416-130v156C96 635.808 282.272 694 512 694z m234-130c-97.36 0-176.288 78.88-176.288 176.192 0 58.208 28.24 109.824 71.792 141.904l55.808-41.44s3.296-3.36 9.504-2.72c6.736 0.704 8.56 4.816 8.56 4.816l32.512 41.344 111.936-86.752s-0.384-6.16 3.04-9.936c3.264-3.6 5.12-3.312 9.872-3.984 12.944-1.84 37.824-5.248 43.712-5.248 2.768-5.488 4.336-14.832 4.336-14.832 0.992-7.568 1.504-15.296 1.504-23.152 0-97.296-78.928-176.192-176.288-176.192z m72.224 82.048c-0.736 0.768-1.088 1.52-1.072 2.288l-46.272 71.072h27.056c8.272 0 12.432 3.392 12.432 10.16-0.768 5.264-4.928 8.272-12.432 9.008h-39.504v20.272h39.504c8.272 0 12.432 3.392 12.432 10.16-0.768 5.248-4.928 8.288-12.432 9.04h-39.504v45.136c0 7.52-4.16 11.296-12.4 11.296-8.304 0-12.432-3.792-12.432-11.296v-45.136h-39.52c-7.536-0.752-11.68-3.776-12.432-9.024 0-6.768 4.128-10.16 12.432-10.16h39.52V738.56h-39.52c-7.536-0.736-11.68-3.744-12.432-9.008 0-6.768 4.128-10.16 12.432-10.16h27.12l-46.304-71.072c0-0.752-0.384-1.504-1.136-2.272a42.432 42.432 0 0 1-3.392-9.008c0.752-6.016 4.112-9.408 10.16-10.16a14.72 14.72 0 0 1 13.552 7.872l51.92 77.856 51.904-77.84a14.688 14.688 0 0 1 13.552-7.888c6.032 0.768 9.408 4.128 10.16 10.16 0.016 1.504-1.12 4.48-3.392 9.008z m88.56 140.832l-29.232 3.152a8.64 8.64 0 0 0-7.04 5.152 8.656 8.656 0 0 0 0.912 8.64l2.88 3.952-128.096 95.36-34.4-42.768a10.464 10.464 0 0 0-14.384-1.84c-14.432 10.736-35.856 26.496-39.376 28.768a10.464 10.464 0 0 0 8.192 19.168c1.792-0.592 3.04-1.024 35.552-25.136l34.416 42.768a10.432 10.432 0 0 0 14.416 1.808l136.048-101.264 2.096 2.912c1.648 2.24 4.288 3.552 7.056 3.552l0.912-0.032a8.88 8.88 0 0 0 7.072-5.12l11.904-26.896a8.752 8.752 0 0 0-8.928-12.176z" fill="#83c6c2" p-id="1512"></path></svg>