<?xml version="1.0" standalone="no"?><!DOCTYPE svg PUBLIC "-//W3C//DTD SVG 1.1//EN" "http://www.w3.org/Graphics/SVG/1.1/DTD/svg11.dtd"><svg t="1503728913684" class="icon" style="" viewBox="0 0 1024 1024" version="1.1" xmlns="http://www.w3.org/2000/svg" p-id="4561" xmlns:xlink="http://www.w3.org/1999/xlink" width="200" height="200"><defs><style type="text/css"></style></defs><path d="M234.792445 56.382932l93.52813 0 93.52813 0 0 471.733786c27.730988 17.088838 51.266513 40.215049 68.969321 67.434396 22.307585 34.484661 35.303288 75.416009 35.303288 119.110223 0 60.476067-24.558809 115.324073-64.262216 155.027481l-0.102328 0.204657c-39.703408 39.703408-94.551414 64.262216-155.027481 64.262216-60.476067 0-115.324073-24.661137-155.027481-64.262216l-0.204657-0.204657c-39.703408-39.703408-64.262216-94.551414-64.262216-155.027481 0-43.694214 12.995703-84.625562 35.303288-119.110223 17.60048-27.219346 41.238333-50.24323 68.866993-67.434396l0-471.733786L234.792445 56.382932 234.792445 56.382932zM551.396423 303.403617l124.226641 69.480963L927.453183 56.382932l40.317378 0 0 68.764665L674.497452 482.682922l-123.101029-82.681323L551.396423 303.403617 551.396423 303.403617zM582.29959 847.58589c-15.04227 31.005496-35.098631 59.248126-59.248126 83.295293l-0.204657 0.204657-3.069851 3.069851 447.891276 0 0-86.569801L582.29959 847.58589 582.29959 847.58589zM611.565504 689.283901l356.205056 0 0 86.569801-361.219147 0c3.990806-19.749375 6.139702-40.215049 6.139702-61.192365C612.691116 706.168082 612.281803 697.674828 611.565504 689.283901L611.565504 689.283901zM551.396423 530.981913l416.374138 0 0 86.67213L596.830219 617.654042c-4.502448-13.507345-9.925852-26.605376-16.167882-39.191766C572.373738 561.782752 562.550215 545.921855 551.396423 530.981913L551.396423 530.981913zM335.278905 143.055061l-57.201559 0 0 438.784051-25.684421 11.460777c-23.535525 10.437494-43.489557 27.730988-57.406216 49.322274-13.302688 20.568002-21.079644 45.331468-21.079644 72.039173 0 36.735885 14.837614 69.890277 38.680124 93.937444l0.204657 0.204657c24.047167 23.944839 57.201559 38.782452 93.937444 38.782452 36.735885 0 69.890277-14.837614 93.835115-38.782452l0.204657-0.204657c23.84251-24.047167 38.680124-57.201559 38.680124-93.937444 0-26.707705-7.776956-51.47117-21.079644-72.039173-14.018987-21.488958-33.973019-38.782452-57.406216-49.322274l-25.684421-11.460777L335.278905 143.055061 335.278905 143.055061z" p-id="4562" fill="#108ee9"></path></svg>