<?xml version="1.0" standalone="no"?><!DOCTYPE svg PUBLIC "-//W3C//DTD SVG 1.1//EN" "http://www.w3.org/Graphics/SVG/1.1/DTD/svg11.dtd"><svg t="1503563339098" class="icon" style="" viewBox="0 0 1024 1024" version="1.1" xmlns="http://www.w3.org/2000/svg" p-id="1020" xmlns:xlink="http://www.w3.org/1999/xlink" width="200" height="200"><defs><style type="text/css"></style></defs><path d="M539.733333 426.666667C504.746667 327.253333 410.026667 256 298.666667 256c-141.226667 0-256 114.773333-256 256s114.773333 256 256 256c111.36 0 206.08-71.253333 241.066667-170.666667L725.333333 597.333333l0 170.666667 170.666667 0 0-170.666667 85.333333 0 0-170.666667L539.733333 426.666667zM298.666667 597.333333c-46.933333 0-85.333333-38.4-85.333333-85.333333s38.4-85.333333 85.333333-85.333333 85.333333 38.4 85.333333 85.333333S345.6 597.333333 298.666667 597.333333z" p-id="1021" fill="#1296db"></path></svg>