<?xml version="1.0" standalone="no"?><!DOCTYPE svg PUBLIC "-//W3C//DTD SVG 1.1//EN" "http://www.w3.org/Graphics/SVG/1.1/DTD/svg11.dtd"><svg t="1503728728869" class="icon" style="" viewBox="0 0 1024 1024" version="1.1" xmlns="http://www.w3.org/2000/svg" p-id="2062" xmlns:xlink="http://www.w3.org/1999/xlink" width="200" height="200"><defs><style type="text/css"></style></defs><path d="M612.202667 489.541333c10.373333 0 18.810667-8.421333 18.810667-18.816 0-10.405333-8.437333-18.816-18.810667-18.805333l-132.96-0.005333 146.522667-146.544c7.354667-7.333333 7.365333-19.258667 0-26.597333-7.354667-7.36-19.258667-7.338667-26.613333 0l-155.856 155.84L286.181333 277.525333c-7.349333-7.36-19.253333-7.36-26.613333 0-7.36 7.333333-7.344 19.269333-0.010667 26.602667l147.802667 147.781333-133.930667-0.005333c-10.378667 0-18.794667 8.410667-18.794667 18.816 0 10.4 8.416 18.816 18.8 18.816l150.581333 0 0 56.458667L273.429333 545.994667c-10.378667 0-18.794667 8.421333-18.794667 18.826667 0 10.373333 8.416 18.810667 18.8 18.810667l150.581333 0 0 149.525333c0 10.378667 8.421333 18.826667 18.810667 18.826667 10.410667-0.037333 18.837333-8.448 18.837333-18.826667l0-149.525333 150.554667 0c10.362667 0 18.8-8.437333 18.8-18.810667 0-10.405333-8.437333-18.826667-18.8-18.826667L461.658667 545.994667 461.658667 489.541333 612.202667 489.541333z" p-id="2063" fill="#108ee9"></path><path d="M442.666667 108.8c222.32 0 403.189333 180.874667 403.189333 403.2 0 222.325333-180.869333 403.2-403.189333 403.2-222.325333 0-403.2-180.874667-403.2-403.2C39.466667 289.674667 220.341333 108.8 442.666667 108.8M442.666667 74.666667C201.136 74.666667 5.333333 270.469333 5.333333 512c0 241.525333 195.802667 437.333333 437.333333 437.333333 241.525333 0 437.328-195.808 437.328-437.333333C879.994667 270.469333 684.192 74.666667 442.666667 74.666667L442.666667 74.666667z" p-id="2064" fill="#108ee9"></path><path d="M779.701333 146.272C906.442667 218.997333 991.994667 355.696 991.994667 512c0 156.309333-85.541333 292.997333-212.282667 365.717333C884.992 790.4 951.013333 658.576 951.013333 512 951.013333 365.413333 884.997333 233.589333 779.701333 146.272M570.661333 64c-15.925333 0-31.658667 0.842667-47.157333 2.469333 225.248 23.568 400.842667 214.042667 400.842667 445.530667 0 231.493333-175.594667 421.968-400.842667 445.530667 15.498667 1.626667 31.226667 2.469333 47.157333 2.469333 247.429333 0 448-200.576 448-448S818.090667 64 570.661333 64L570.661333 64z" p-id="2065" fill="#108ee9"></path></svg>